<?xml version="1.0" encoding="UTF-8" standalone="no"?>
<svg
   xmlns:dc="http://purl.org/dc/elements/1.1/"
   xmlns:cc="http://creativecommons.org/ns#"
   xmlns:rdf="http://www.w3.org/1999/02/22-rdf-syntax-ns#"
   xmlns:svg="http://www.w3.org/2000/svg"
   xmlns="http://www.w3.org/2000/svg"
   xmlns:xlink="http://www.w3.org/1999/xlink"
   id="svg23"
   version="1.1"
   viewBox="0 0 20 14"
   height="14px"
   width="20px">
  <metadata
     id="metadata27">
    <rdf:RDF>
      <cc:Work
         rdf:about="">
        <dc:format>image/svg+xml</dc:format>
        <dc:type
           rdf:resource="http://purl.org/dc/dcmitype/StillImage" />
        <dc:title>icons-new/menu/2px</dc:title>
      </cc:Work>
    </rdf:RDF>
  </metadata>
  <!-- Generator: Sketch 57.1 (83088) - https://sketch.com -->
  <title
     id="title2">icons-new/menu/2px</title>
  <desc
     id="desc4">Created with Sketch.</desc>
  <defs
     id="defs7">
    <path
       id="path-1"
       d="M19,12 C19.5522847,12 20,12.4477153 20,13 C20,13.5522847 19.5522847,14 19,14 L19,14 L1,14 C0.44771525,14 0,13.5522847 0,13 C0,12.4477153 0.44771525,12 1,12 L1,12 Z M1,6 L19,6 C19.5522847,6 20,6.44771525 20,7 C20,7.51283584 19.6139598,7.93550716 19.1166211,7.99327227 L19,8 L1,8 C0.44771525,8 0,7.55228475 0,7 C0,6.48716416 0.38604019,6.06449284 0.883378875,6.00672773 L1,6 L19,6 Z M1,0 L19,0 C19.5522847,0 20,0.44771525 20,1 C20,1.51283584 19.6139598,1.93550716 19.1166211,1.99327227 L19,2 L1,2 C0.44771525,2 0,1.55228475 0,1 C0,0.487164161 0.38604019,0.0644928393 0.883378875,0.00672773133 L1,0 L19,0 Z" />
  </defs>
  <g
     style="fill:#009ee3;fill-opacity:1"
     fill-rule="evenodd"
     fill="none"
     stroke-width="1"
     stroke="none"
     id="😀Layouts">
    <g
       style="fill:#009ee3;fill-opacity:1"
       transform="translate(-333.000000, -24.000000)"
       id="Startseite">
      <g
         style="fill:#009ee3;fill-opacity:1"
         id="header">
        <g
           style="fill:#009ee3;fill-opacity:1"
           id="Headerbild">
          <g
             style="fill:#009ee3;fill-opacity:1"
             transform="translate(331.000000, 19.000000)"
             id="icons-new/menu/2px">
            <g
               style="fill:#009ee3;fill-opacity:1"
               transform="translate(2.000000, 5.000000)"
               id="icons-new/menu">
              <mask
                 fill="white"
                 id="mask-2">
                <use
                   id="use9"
                   xlink:href="#path-1" />
              </mask>
              <use
                 style="fill:#009ee3;fill-opacity:1"
                 xlink:href="#path-1"
                 fill-rule="nonzero"
                 fill="#000000"
                 id="Combined-Shape" />
              <g
                 style="fill:#009ee3;fill-opacity:1"
                 fill="#FF775A"
                 mask="url(#mask-2)"
                 id="Color-/-Brand-/-Highlight">
                <g
                   style="fill:#009ee3;fill-opacity:1"
                   id="-------------------------COLOR"
                   transform="translate(-2.000000, -5.000000)">
                  <polygon
                     style="fill:#009ee3;fill-opacity:1"
                     id="polygon13"
                     points="0 0 24 0 24 24 0 24" />
                </g>
              </g>
            </g>
          </g>
        </g>
      </g>
    </g>
  </g>
</svg>
