<svg id="Ebene_1" data-name="Ebene 1" xmlns="http://www.w3.org/2000/svg" xmlns:xlink="http://www.w3.org/1999/xlink" viewBox="0 0 97 98"><defs><style>.cls-1,.cls-2{fill:none;}.cls-2{clip-rule:evenodd;}.cls-3{clip-path:url(#clip-path);}.cls-4{isolation:isolate;}.cls-5{clip-path:url(#clip-path-2);}.cls-6{clip-path:url(#clip-path-3);}.cls-7{clip-path:url(#clip-path-4);}.cls-8{fill:#009fda;}.cls-9{clip-path:url(#clip-path-5);}.cls-10{clip-path:url(#clip-path-6);}.cls-11{fill:#fef5f3;}</style><clipPath id="clip-path"><rect class="cls-1" x="16.51" y="17.05" width="63.99" height="63.89"/></clipPath><clipPath id="clip-path-2"><rect class="cls-1" x="14.51" y="15.05" width="67" height="66"/></clipPath><clipPath id="clip-path-3"><path class="cls-2" d="M80.48,26.88a4.51,4.51,0,0,1-.15,1.59,5.37,5.37,0,0,1-1.78,2.64c-5.66,4.75-5.41,5.09-.7,11.6.29.4.57.8.84,1.21a9.68,9.68,0,0,1,1.63,4A6.41,6.41,0,0,1,80,51a6.84,6.84,0,0,1-1.36,2.17c-1.77,2-3.87,3.84-4.68,6.39-1.26,4,3.69,4.59,4.69,7.48l.47,1.33a6.32,6.32,0,0,1,.38,2.15,8.84,8.84,0,0,1-2.63,6.31,24.19,24.19,0,0,1-2.8,2.35,7.44,7.44,0,0,1-3.74,1.35,5.46,5.46,0,0,1-3-.56,10.37,10.37,0,0,1-3.19-2.47c-3.5-3.93-4.39-3.28-10.16.95-.44.32-.9.64-1.35,1a8.62,8.62,0,0,1-3.25,1.39,6.26,6.26,0,0,1-2.16,0,8.37,8.37,0,0,1-4.33-2.06c-1.84-1.61-3.65-3.33-5.79-4.18-3.89-1.54-4.51,3.74-7.44,4.71l-1.49.51a7.52,7.52,0,0,1-2,.34H24.79a5.25,5.25,0,0,1-2.81-1h0c-6.84-5.5-7.14-9.54-1.07-15.6,2.27-2.25,1.8-4.21-.19-6.39-5.56-6.08-5.62-10.48-.11-16.71,2.45-2.77,2.4-4.91-.46-7.35C15.62,29.29,15.52,24,19.65,20s9.31-3.77,12.85.63c2.38,3,4.47,3.09,7.21.51,5.72-5.35,10.64-5.4,16.37-.12,2.88,2.65,5.07,2.62,7.62-.45,3.9-4.68,10-4.38,13.72.46.76,1,1.39,2.06,2.07,3.1a5.87,5.87,0,0,1,1,2.79m-5,22.89c0-3.14-.53-4.22-2.83-6.81-4-4.5-4-8.72.52-12.48,2.9-2.44,3.07-4.9.64-7.41s-4.94-2.49-7.45.35c-4.07,4.6-8,4.76-12.4.82s-7.1-4-11.63-.06-8.57,3.88-12.44-.68c-2.48-2.92-4.95-2.92-7.4-.46s-2.26,5,.54,7.45c4.52,4,4.61,7.94.63,12.45-3.83,4.31-3.87,7.16-.17,11.33C27.65,59,27.58,62.94,22.85,67c-2.71,2.35-2.68,4.66-.58,7.15s5,2.41,7.43-.17c4.56-4.81,8-4.91,13.06-.41,3.77,3.33,7,3.33,10.69,0,4.87-4.45,8.74-4.39,13,.48,2.39,2.7,4.72,2.54,7.14.4s2.3-5-.39-7.4c-4.55-4.05-4.77-8.18-.53-12.75,1.54-1.66,2.73-3.39,2.72-4.54"/></clipPath><clipPath id="clip-path-4"><rect class="cls-1" x="16.51" y="17.05" width="64" height="64"/></clipPath><clipPath id="clip-path-5"><path class="cls-2" d="M63.8,49.17c-.22-9.05-6.51-15.83-15-16.23A15.88,15.88,0,0,0,32.52,46.47c-1.27,7.89,4.16,15.63,12.3,17.58a15.14,15.14,0,0,0,8.58-.62c1.44-.48,3.28-1.76,4.08.47.91,2.49-1.51,2.72-3,3.25-7.42,2.56-14.2,1.11-19.79-4.22a18.69,18.69,0,0,1-5.26-20c2.26-7.49,7.49-12.09,15.13-13.49C57.73,27,69.14,37.85,67.73,51.32c-.64,6.23-5.53,8.89-10.85,5.67-1.58-1-2.41-.67-3.81.08-4.58,2.42-9.17,1.62-12.3-1.89a9.82,9.82,0,0,1,9.68-16c4.24,1,7.11,4.71,7.38,9.64,0,.73,0,1.46,0,2.18.06,2,.81,3.58,3,3.54s3-1.52,2.94-3.57c0-.59,0-1.17,0-1.75M54,48.56a6.15,6.15,0,0,0-6-5.77,6.15,6.15,0,0,0-5.76,6,6.14,6.14,0,0,0,6,5.77,6.15,6.15,0,0,0,5.76-6"/></clipPath><clipPath id="clip-path-6"><path class="cls-2" d="M54,48.56a6.15,6.15,0,0,1-5.76,6,6.14,6.14,0,0,1-6-5.77,6.15,6.15,0,0,1,5.76-6,6.15,6.15,0,0,1,6,5.77"/></clipPath></defs><g class="cls-3"><g class="cls-4"><g class="cls-5"><g class="cls-6"><g class="cls-7"><rect class="cls-8" x="11.5" y="12.05" width="73.99" height="73.89"/></g></g></g></g></g><g class="cls-9"><rect class="cls-8" x="23.41" y="24.08" width="49.44" height="49.3"/></g><g class="cls-10"><rect class="cls-11" x="37.21" y="37.79" width="21.75" height="21.77"/></g></svg>