<svg id="Ebene_1" data-name="Ebene 1" xmlns="http://www.w3.org/2000/svg" xmlns:xlink="http://www.w3.org/1999/xlink" viewBox="0 0 97 98"><defs><style>.cls-1,.cls-13,.cls-2{fill:none;}.cls-13,.cls-2{stroke:#009fda;stroke-linejoin:round;stroke-width:4px;}.cls-2{stroke-linecap:round;}.cls-3{clip-path:url(#clip-path);}.cls-4{isolation:isolate;}.cls-5{clip-path:url(#clip-path-2);}.cls-6{clip-path:url(#clip-path-3);}.cls-7{clip-path:url(#clip-path-5);}.cls-8{clip-path:url(#clip-path-8);}.cls-9{clip-path:url(#clip-path-11);}.cls-10{clip-path:url(#clip-path-14);}.cls-11{clip-path:url(#clip-path-17);}.cls-12{clip-path:url(#clip-path-20);}</style><clipPath id="clip-path"><rect class="cls-1" x="11.5" y="12.5" width="73" height="73"/></clipPath><clipPath id="clip-path-2"><rect class="cls-1" x="20.5" y="55.5" width="18" height="18"/></clipPath><clipPath id="clip-path-3"><rect class="cls-1" x="11.5" y="18.5" width="73" height="59"/></clipPath><clipPath id="clip-path-5"><rect class="cls-1" x="38.5" y="36.5" width="19" height="19"/></clipPath><clipPath id="clip-path-8"><rect class="cls-1" x="38.5" y="55.5" width="19" height="18"/></clipPath><clipPath id="clip-path-11"><rect class="cls-1" x="57.5" y="55.5" width="18" height="18"/></clipPath><clipPath id="clip-path-14"><rect class="cls-1" x="48.5" y="42.5" width="21" height="22"/></clipPath><clipPath id="clip-path-17"><rect class="cls-1" x="26.5" y="42.5" width="21" height="22"/></clipPath><clipPath id="clip-path-20"><rect class="cls-1" x="41.5" y="46.5" width="9" height="18"/></clipPath></defs><path class="cls-2" d="M83.5,69.39a6.1,6.1,0,0,1-6.09,6.11H19.59a6.11,6.11,0,0,1-6.09-6.11V26.61a6.1,6.1,0,0,1,6.09-6.11H77.41a6.09,6.09,0,0,1,6.09,6.11Z"/><line class="cls-2" x1="13.5" y1="35" x2="83.5" y2="35"/><circle class="cls-2" cx="23" cy="28" r="1.5"/><circle class="cls-2" cx="32" cy="28" r="1.5"/><circle class="cls-2" cx="41" cy="28" r="1.5"/><g class="cls-3"><g class="cls-4"><g class="cls-5"><g class="cls-6"><rect class="cls-2" x="25.19" y="59.65" width="9.13" height="9.13"/></g></g></g></g><g class="cls-3"><g class="cls-4"><g class="cls-7"><g class="cls-6"><rect class="cls-2" x="43.44" y="41.4" width="9.13" height="9.13"/></g></g></g></g><g class="cls-3"><g class="cls-4"><g class="cls-8"><g class="cls-6"><rect class="cls-2" x="43.44" y="59.65" width="9.13" height="9.13"/></g></g></g></g><g class="cls-3"><g class="cls-4"><g class="cls-9"><g class="cls-6"><rect class="cls-2" x="61.69" y="59.65" width="9.13" height="9.13"/></g></g></g></g><g class="cls-3"><g class="cls-4"><g class="cls-10"><g class="cls-6"><polyline class="cls-2" points="52.56 47.48 64.73 47.48 64.73 59.65"/></g></g></g></g><g class="cls-3"><g class="cls-4"><g class="cls-11"><g class="cls-6"><polyline class="cls-2" points="43.44 47.48 31.27 47.48 31.27 59.65"/></g></g></g></g><g class="cls-3"><g class="cls-4"><g class="cls-12"><g class="cls-6"><line class="cls-13" x1="46.48" y1="50.52" x2="46.48" y2="59.65"/></g></g></g></g></svg>