<svg id="Ebene_1" data-name="Ebene 1" xmlns="http://www.w3.org/2000/svg" viewBox="0 0 97 98"><defs><style>.cls-1,.cls-2{fill:none;stroke:#009fda;stroke-miterlimit:10;stroke-width:4px;}.cls-2{stroke-linecap:round;}</style></defs><polygon class="cls-1" points="55.61 79 42.28 79 36.95 63 60.95 63 55.61 79"/><path class="cls-2" d="M54.33,41.65c-3.67,2.45-5.56,6.92,0,10.68,3.06,7.62,8.73,5.57,12.08,2S71.52,41,69.05,35.55C63.69,39.6,58.91,38.6,54.33,41.65Z"/><path class="cls-2" d="M43.72,30.89c4,4.65,6,10.76-3.38,14.87-4.31,9.62-10.86,6.05-15.22.92s-6-18.89-2.19-26.14C30,26.53,38.79,25.08,43.72,30.89Z"/><path class="cls-2" d="M62,46.23C52.81,50.8,48.24,63,48.24,63A65.83,65.83,0,0,0,29.13,31.4"/></svg>