<svg id="Ebene_1" data-name="Ebene 1" xmlns="http://www.w3.org/2000/svg" viewBox="0 0 97 98"><defs><style>.cls-1,.cls-2{fill:none;stroke:#009fda;stroke-miterlimit:10;stroke-width:4px;}.cls-2{stroke-linecap:round;}</style></defs><path class="cls-1" d="M79.17,70.44a9.34,9.34,0,0,1-9.34,9.34H27.17a9.34,9.34,0,1,1,0-18.67H69.83A9.33,9.33,0,0,1,79.17,70.44Z"/><path class="cls-1" d="M37.43,61.11l7.85-13.78a27.45,27.45,0,0,0,.08-27.06l-25.25,44"/><line class="cls-2" x1="42.61" y1="35.53" x2="35.29" y2="48.36"/><circle class="cls-1" cx="29.83" cy="70.44" r="4"/><circle class="cls-1" cx="67.17" cy="70.44" r="4"/><path class="cls-2" d="M76.5,64V37.11a5.34,5.34,0,0,0-10.67,0v.13a6.67,6.67,0,0,1,0,13.07v10.8"/></svg>