<svg id="Ebene_1" data-name="Ebene 1" xmlns="http://www.w3.org/2000/svg" xmlns:xlink="http://www.w3.org/1999/xlink" viewBox="0 0 97 98"><defs><style>.cls-1,.cls-2,.cls-3{fill:none;}.cls-2,.cls-3{stroke:#009fda;stroke-linejoin:round;stroke-width:4px;}.cls-2{stroke-linecap:round;}.cls-4{clip-path:url(#clip-path);}.cls-5{isolation:isolate;}.cls-6{clip-path:url(#clip-path-2);}.cls-7{clip-path:url(#clip-path-5);}.cls-8{clip-path:url(#clip-path-8);}.cls-9{clip-path:url(#clip-path-11);}.cls-10{clip-path:url(#clip-path-14);}.cls-11{clip-path:url(#clip-path-17);}</style><clipPath id="clip-path"><rect class="cls-1" x="16.5" y="17" width="64" height="64"/></clipPath><clipPath id="clip-path-2"><rect class="cls-1" x="13.5" y="14" width="41" height="41"/></clipPath><clipPath id="clip-path-5"><rect class="cls-1" x="42.5" y="43" width="41" height="41"/></clipPath><clipPath id="clip-path-8"><rect class="cls-1" x="28.5" y="63" width="14" height="20"/></clipPath><clipPath id="clip-path-11"><rect class="cls-1" x="17.5" y="55" width="25" height="23"/></clipPath><clipPath id="clip-path-14"><rect class="cls-1" x="54.5" y="15" width="15" height="20"/></clipPath><clipPath id="clip-path-17"><rect class="cls-1" x="54.5" y="21" width="25" height="22"/></clipPath></defs><line class="cls-2" x1="23.25" y1="29" x2="44.5" y2="29"/><line class="cls-2" x1="33.83" y1="23.71" x2="33.88" y2="29"/><path class="cls-2" d="M40.6,29.06A23.18,23.18,0,0,1,24.42,45"/><path class="cls-2" d="M27.39,29.15A23.18,23.18,0,0,0,43.54,45"/><polyline class="cls-2" points="55.17 74.29 63.21 53 71.21 74.37"/><line class="cls-3" x1="57.17" y1="69" x2="69.2" y2="69"/><g class="cls-4"><g class="cls-5"><g class="cls-6"><g class="cls-4"><rect class="cls-2" x="17.83" y="18.33" width="32" height="32"/></g></g></g></g><g class="cls-4"><g class="cls-5"><g class="cls-7"><g class="cls-4"><polyline class="cls-2" points="56.5 47.67 79.17 47.67 79.17 79.67 47.17 79.67 47.17 57"/></g></g></g></g><g class="cls-4"><g class="cls-5"><g class="cls-8"><g class="cls-4"><polyline class="cls-2" points="32.5 78.33 37.83 73 32.5 67.67"/></g></g></g></g><g class="cls-4"><g class="cls-5"><g class="cls-9"><g class="cls-4"><path class="cls-2" d="M21.83,59.67A13.33,13.33,0,0,0,35.17,73h2.66"/></g></g></g></g><g class="cls-4"><g class="cls-5"><g class="cls-10"><g class="cls-4"><polyline class="cls-2" points="64.5 19.67 59.17 25 64.5 30.33"/></g></g></g></g><g class="cls-4"><g class="cls-5"><g class="cls-11"><g class="cls-4"><path class="cls-2" d="M75.17,38.33A13.33,13.33,0,0,0,61.83,25H59.17"/></g></g></g></g></svg>